{"title":"Margarita with A Straw (2015) - 1CD - PreDVD-Rip","uid":11846844,"size":746447613,"categoryP":"video","categoryS":"movies","magnet":"?xt=urn:btih:3858c4adb34ee420a4547d98e259b1c75ef09061&amp;dn=+Margarita+with+A+Straw+%282015%29+-+1CD+-+PreDVD-Rip+&amp;tr=udp%3A%2F%2Ftracker.openbittorrent.com%3A80&amp;tr=udp%3A%2F%2Fopen.demonii.com%3A1337&amp;tr=udp%3A%2F%2Ftracker.coppersurfer.tk%3A6969&amp;tr=udp%3A%2F%2Fexodus.desync.com%3A6969","seeders":105,"leechers":44,"uploader":"makintos13","files":3,"time":1429921219,"description":"screen:\n &lt;a href=&quot;\nhttp://imgmak.com/kZ&quot; rel=&quot;nofollow&quot; target=&quot;_NEW&quot;&gt;\nhttp://imgmak.com/kZ&lt;/a&gt;\n &lt;a href=&quot;\nhttp://imgmak.com/kc&quot; rel=&quot;nofollow&quot; target=&quot;_NEW&quot;&gt;\nhttp://imgmak.com/kc&lt;/a&gt;\n &lt;a href=&quot;\nhttp://imgmak.com/kn&quot; rel=&quot;nofollow&quot; target=&quot;_NEW&quot;&gt;\nhttp://imgmak.com/kn&lt;/a&gt;\n &lt;a href=&quot;\nhttp://imgmak.com/kr&quot; rel=&quot;nofollow&quot; target=&quot;_NEW&quot;&gt;\nhttp://imgmak.com/kr&lt;/a&gt;\n &lt;a href=&quot;\nhttp://imgmak.com/kB&quot; rel=&quot;nofollow&quot; target=&quot;_NEW&quot;&gt;\nhttp://imgmak.com/kB&lt;/a&gt;\n\n\nVideo\nID : 1\nFormat : AVC\nFormat/Info : Advanced Video Codec\nFormat profile : &lt;a class=&quot;__cf_email__&quot; href=&quot;/cdn-cgi/l/email-protection&quot; data-cfemail=&quot;83cbeae4ebc3cfb7adb2&quot;&gt;[email&amp;#160;protected]&lt;/a&gt;&lt;script cf-hash='f9e31' type=&quot;text/javascript&quot;&gt;\n/* &lt;![CDATA[ */!function(){try{var t=&quot;currentScript&quot;in document?document.currentScript:function(){for(var t=document.getElementsByTagName(&quot;script&quot;),e=t.length;e--;)if(t[e].getAttribute(&quot;cf-hash&quot;))return t[e]}();if(t&amp;&amp;t.previousSibling){var e,r,n,i,c=t.previousSibling,a=c.getAttribute(&quot;data-cfemail&quot;);if(a){for(e=&quot;&quot;,r=parseInt(a.substr(0,2),16),n=2;a.length-n;n+=2)i=parseInt(a.substr(n,2),16)^r,e+=String.fromCharCode(i);e=document.createTextNode(e),c.parentNode.replaceChild(e,c)}}}catch(u){}}();/* ]]&gt; */&lt;/script&gt;\nFormat settings, CABAC : Yes\nFormat settings, ReFrames : 4 frames\nCodec ID : V_MPEG4/ISO/AVC\nDuration : 1h 37mn\nBit rate : 901 Kbps\nWidth : 640 pixels\nHeight : 272 pixels\nDisplay aspect ratio : 2.35:1\nFrame rate mode : Constant\nFrame rate : 25.000 fps\nColor space : YUV\nChroma subsampling : 4:2:0\nBit depth : 8 bits\nScan type : Progressive\nBits/(Pixel*Frame) : 0.207\nStream size : 613 MiB (87%)\nTitle : Mafiaking\nLanguage : Hindi\nDefault : Yes\nForced : No\n\nAudio\nID : 2\nFormat : MPEG Audio\nFormat version : Version 1\nFormat profile : Layer 3\nMode : Joint stereo\nMode extension : MS Stereo\nCodec ID : A_MPEG/L3\nCodec ID/Hint : MP3\nDuration : 1h 37mn\nBit rate mode : Constant\nBit rate : 112 Kbps\nChannel(s) : 2 channels\nSampling rate : 44.1 KHz\nCompression mode : Lossy\nStream size : 77.8 MiB (11%)\nTitle : Mafiaking\nLanguage : Hindi\nDefault : Yes\nForced : No\n\n &lt;a href=&quot;\nhttp://www.imdb.com/title/tt2929690/&quot; rel=&quot;nofollow&quot; target=&quot;_NEW&quot;&gt;\nhttp://www.imdb.com/title/tt2929690/&lt;/a&gt;","torrent":{"xt":"urn:btih:3858c4adb34ee420a4547d98e259b1c75ef09061","amp;dn":"+Margarita+with+A+Straw+%282015%29+-+1CD+-+PreDVD-Rip+","amp;tr":["udp%3A%2F%2Ftracker.openbittorrent.com%3A80","udp%3A%2F%2Fopen.demonii.com%3A1337","udp%3A%2F%2Ftracker.coppersurfer.tk%3A6969","udp%3A%2F%2Fexodus.desync.com%3A6969"],"infoHash":"3858c4adb34ee420a4547d98e259b1c75ef09061","infoHashBuffer":{"type":"Buffer","data":[56,88,196,173,179,78,228,32,164,84,125,152,226,89,177,199,94,240,144,97]},"announce":[],"urlList":[]}}